<mxfile host="Electron" modified="2025-04-07T14:46:11.219Z" agent="Mozilla/5.0 (Windows NT 10.0; Win64; x64) AppleWebKit/537.36 (KHTML, like Gecko) draw.io/21.2.8 Chrome/112.0.5615.165 Electron/24.2.0 Safari/537.36" etag="O9xbiinFG1GJ031K5_KC" version="21.2.8" type="device">
  <diagram name="第 1 页" id="tX3Kw-8hxWoJnyAvWVm0">
    <mxGraphModel dx="1195" dy="697" grid="1" gridSize="10" guides="1" tooltips="1" connect="1" arrows="1" fold="1" page="1" pageScale="1" pageWidth="2339" pageHeight="3300" math="0" shadow="0">
      <root>
        <mxCell id="0" />
        <mxCell id="1" parent="0" />
        <mxCell id="5HV7a1OXDI3dRgfCxBMq-1" value="" style="rounded=0;whiteSpace=wrap;html=1;" vertex="1" parent="1">
          <mxGeometry x="550" y="270" width="290" height="360" as="geometry" />
        </mxCell>
        <mxCell id="5HV7a1OXDI3dRgfCxBMq-82" value="" style="rounded=0;whiteSpace=wrap;html=1;" vertex="1" parent="1">
          <mxGeometry x="580" y="450" width="230" height="140" as="geometry" />
        </mxCell>
        <mxCell id="5HV7a1OXDI3dRgfCxBMq-2" value="" style="rounded=0;whiteSpace=wrap;html=1;" vertex="1" parent="1">
          <mxGeometry x="600" y="480" width="230" height="140" as="geometry" />
        </mxCell>
        <mxCell id="5HV7a1OXDI3dRgfCxBMq-3" value="kmem_cache_cpu" style="text;html=1;strokeColor=none;fillColor=none;align=center;verticalAlign=middle;whiteSpace=wrap;rounded=0;" vertex="1" parent="1">
          <mxGeometry x="610" y="480" width="120" height="30" as="geometry" />
        </mxCell>
        <mxCell id="5HV7a1OXDI3dRgfCxBMq-5" value="" style="rounded=0;whiteSpace=wrap;html=1;" vertex="1" parent="1">
          <mxGeometry x="950" y="450" width="120" height="360" as="geometry" />
        </mxCell>
        <mxCell id="5HV7a1OXDI3dRgfCxBMq-6" value="" style="shape=curlyBracket;whiteSpace=wrap;html=1;rounded=1;flipH=1;labelPosition=right;verticalLabelPosition=middle;align=left;verticalAlign=middle;" vertex="1" parent="1">
          <mxGeometry x="1080" y="450" width="30" height="360" as="geometry" />
        </mxCell>
        <mxCell id="5HV7a1OXDI3dRgfCxBMq-7" value="a page" style="text;html=1;strokeColor=none;fillColor=none;align=center;verticalAlign=middle;whiteSpace=wrap;rounded=0;" vertex="1" parent="1">
          <mxGeometry x="1130" y="615" width="60" height="30" as="geometry" />
        </mxCell>
        <mxCell id="5HV7a1OXDI3dRgfCxBMq-8" value="" style="rounded=0;whiteSpace=wrap;html=1;fillColor=#f8cecc;strokeColor=#b85450;" vertex="1" parent="1">
          <mxGeometry x="950" y="450" width="120" height="60" as="geometry" />
        </mxCell>
        <mxCell id="5HV7a1OXDI3dRgfCxBMq-9" value="" style="rounded=0;whiteSpace=wrap;html=1;fillColor=#f8cecc;strokeColor=#b85450;" vertex="1" parent="1">
          <mxGeometry x="950" y="510" width="120" height="60" as="geometry" />
        </mxCell>
        <mxCell id="5HV7a1OXDI3dRgfCxBMq-10" value="" style="rounded=0;whiteSpace=wrap;html=1;fillColor=#6d8764;fontColor=#ffffff;strokeColor=#3A5431;" vertex="1" parent="1">
          <mxGeometry x="950" y="570" width="120" height="60" as="geometry" />
        </mxCell>
        <mxCell id="5HV7a1OXDI3dRgfCxBMq-14" value="" style="rounded=0;whiteSpace=wrap;html=1;fillColor=#6d8764;fontColor=#ffffff;strokeColor=#3A5431;" vertex="1" parent="1">
          <mxGeometry x="950" y="630" width="120" height="60" as="geometry" />
        </mxCell>
        <mxCell id="5HV7a1OXDI3dRgfCxBMq-16" value="" style="endArrow=none;dashed=1;html=1;dashPattern=1 3;strokeWidth=2;rounded=0;" edge="1" parent="1">
          <mxGeometry width="50" height="50" relative="1" as="geometry">
            <mxPoint x="1009.8" y="770" as="sourcePoint" />
            <mxPoint x="1009.8" y="720" as="targetPoint" />
          </mxGeometry>
        </mxCell>
        <mxCell id="5HV7a1OXDI3dRgfCxBMq-19" style="edgeStyle=orthogonalEdgeStyle;rounded=0;orthogonalLoop=1;jettySize=auto;html=1;entryX=0;entryY=0;entryDx=0;entryDy=0;" edge="1" parent="1" source="5HV7a1OXDI3dRgfCxBMq-17" target="5HV7a1OXDI3dRgfCxBMq-8">
          <mxGeometry relative="1" as="geometry" />
        </mxCell>
        <mxCell id="5HV7a1OXDI3dRgfCxBMq-17" value="" style="rounded=0;whiteSpace=wrap;html=1;" vertex="1" parent="1">
          <mxGeometry x="710" y="530" width="120" height="30" as="geometry" />
        </mxCell>
        <mxCell id="5HV7a1OXDI3dRgfCxBMq-18" value="struct page *page" style="text;html=1;strokeColor=none;fillColor=none;align=center;verticalAlign=middle;whiteSpace=wrap;rounded=0;" vertex="1" parent="1">
          <mxGeometry x="705" y="530" width="130" height="30" as="geometry" />
        </mxCell>
        <mxCell id="5HV7a1OXDI3dRgfCxBMq-22" style="edgeStyle=orthogonalEdgeStyle;rounded=0;orthogonalLoop=1;jettySize=auto;html=1;entryX=-0.028;entryY=0.017;entryDx=0;entryDy=0;entryPerimeter=0;" edge="1" parent="1">
          <mxGeometry relative="1" as="geometry">
            <mxPoint x="810" y="572.9999999999999" as="sourcePoint" />
            <mxPoint x="946.6400000000001" y="569.02" as="targetPoint" />
            <Array as="points">
              <mxPoint x="870" y="573" />
              <mxPoint x="870" y="574" />
              <mxPoint x="930" y="574" />
              <mxPoint x="930" y="569" />
            </Array>
          </mxGeometry>
        </mxCell>
        <mxCell id="5HV7a1OXDI3dRgfCxBMq-20" value="" style="rounded=0;whiteSpace=wrap;html=1;" vertex="1" parent="1">
          <mxGeometry x="710" y="560" width="120" height="30" as="geometry" />
        </mxCell>
        <mxCell id="5HV7a1OXDI3dRgfCxBMq-21" value="void **freelist" style="text;html=1;strokeColor=none;fillColor=none;align=center;verticalAlign=middle;whiteSpace=wrap;rounded=0;" vertex="1" parent="1">
          <mxGeometry x="730" y="560" width="90" height="30" as="geometry" />
        </mxCell>
        <mxCell id="5HV7a1OXDI3dRgfCxBMq-71" style="edgeStyle=orthogonalEdgeStyle;rounded=0;orthogonalLoop=1;jettySize=auto;html=1;" edge="1" parent="1">
          <mxGeometry relative="1" as="geometry">
            <mxPoint x="960" y="604.9999999999999" as="sourcePoint" />
            <mxPoint x="950" y="630" as="targetPoint" />
            <Array as="points">
              <mxPoint x="930" y="605" />
              <mxPoint x="930" y="630" />
            </Array>
          </mxGeometry>
        </mxCell>
        <mxCell id="5HV7a1OXDI3dRgfCxBMq-23" value="freepointer" style="rounded=0;whiteSpace=wrap;html=1;" vertex="1" parent="1">
          <mxGeometry x="960" y="595" width="100" height="20" as="geometry" />
        </mxCell>
        <mxCell id="5HV7a1OXDI3dRgfCxBMq-24" value="freepointer" style="rounded=0;whiteSpace=wrap;html=1;" vertex="1" parent="1">
          <mxGeometry x="960" y="525" width="100" height="20" as="geometry" />
        </mxCell>
        <mxCell id="5HV7a1OXDI3dRgfCxBMq-25" value="freepointer" style="rounded=0;whiteSpace=wrap;html=1;" vertex="1" parent="1">
          <mxGeometry x="960" y="480" width="100" height="20" as="geometry" />
        </mxCell>
        <mxCell id="5HV7a1OXDI3dRgfCxBMq-26" value="freepointer" style="rounded=0;whiteSpace=wrap;html=1;" vertex="1" parent="1">
          <mxGeometry x="960" y="650" width="100" height="20" as="geometry" />
        </mxCell>
        <mxCell id="5HV7a1OXDI3dRgfCxBMq-30" value="" style="rounded=0;whiteSpace=wrap;html=1;" vertex="1" parent="1">
          <mxGeometry x="710" y="590" width="120" height="30" as="geometry" />
        </mxCell>
        <mxCell id="5HV7a1OXDI3dRgfCxBMq-47" style="edgeStyle=orthogonalEdgeStyle;rounded=0;orthogonalLoop=1;jettySize=auto;html=1;entryX=0.5;entryY=0;entryDx=0;entryDy=0;" edge="1" parent="1" source="5HV7a1OXDI3dRgfCxBMq-31" target="5HV7a1OXDI3dRgfCxBMq-41">
          <mxGeometry relative="1" as="geometry" />
        </mxCell>
        <mxCell id="5HV7a1OXDI3dRgfCxBMq-31" value="struct page * partial" style="text;html=1;strokeColor=none;fillColor=none;align=center;verticalAlign=middle;whiteSpace=wrap;rounded=0;" vertex="1" parent="1">
          <mxGeometry x="705" y="590" width="130" height="30" as="geometry" />
        </mxCell>
        <mxCell id="5HV7a1OXDI3dRgfCxBMq-65" style="edgeStyle=orthogonalEdgeStyle;rounded=0;orthogonalLoop=1;jettySize=auto;html=1;" edge="1" parent="1" source="5HV7a1OXDI3dRgfCxBMq-32" target="5HV7a1OXDI3dRgfCxBMq-58">
          <mxGeometry relative="1" as="geometry" />
        </mxCell>
        <mxCell id="5HV7a1OXDI3dRgfCxBMq-32" value="" style="rounded=0;whiteSpace=wrap;html=1;" vertex="1" parent="1">
          <mxGeometry x="710" y="700" width="120" height="290" as="geometry" />
        </mxCell>
        <mxCell id="5HV7a1OXDI3dRgfCxBMq-33" value="" style="rounded=0;whiteSpace=wrap;html=1;fillColor=#6d8764;fontColor=#ffffff;strokeColor=#3A5431;" vertex="1" parent="1">
          <mxGeometry x="710" y="760" width="120" height="60" as="geometry" />
        </mxCell>
        <mxCell id="5HV7a1OXDI3dRgfCxBMq-37" value="" style="rounded=0;whiteSpace=wrap;html=1;fillColor=#6d8764;fontColor=#ffffff;strokeColor=#3A5431;" vertex="1" parent="1">
          <mxGeometry x="710" y="880" width="120" height="60" as="geometry" />
        </mxCell>
        <mxCell id="5HV7a1OXDI3dRgfCxBMq-38" value="object" style="text;html=1;strokeColor=#666666;fillColor=#f5f5f5;align=center;verticalAlign=middle;whiteSpace=wrap;rounded=0;fontColor=#333333;" vertex="1" parent="1">
          <mxGeometry x="740" y="910" width="60" height="30" as="geometry" />
        </mxCell>
        <mxCell id="5HV7a1OXDI3dRgfCxBMq-39" value="freepointer" style="rounded=0;whiteSpace=wrap;html=1;" vertex="1" parent="1">
          <mxGeometry x="720" y="890" width="100" height="20" as="geometry" />
        </mxCell>
        <mxCell id="5HV7a1OXDI3dRgfCxBMq-40" value="object" style="text;html=1;strokeColor=#666666;fillColor=#f5f5f5;align=center;verticalAlign=middle;whiteSpace=wrap;rounded=0;fontColor=#333333;" vertex="1" parent="1">
          <mxGeometry x="720" y="910" width="100" height="30" as="geometry" />
        </mxCell>
        <mxCell id="5HV7a1OXDI3dRgfCxBMq-41" value="" style="rounded=0;whiteSpace=wrap;html=1;fillColor=#f8cecc;strokeColor=#b85450;" vertex="1" parent="1">
          <mxGeometry x="710" y="700" width="120" height="60" as="geometry" />
        </mxCell>
        <mxCell id="5HV7a1OXDI3dRgfCxBMq-44" value="" style="rounded=0;whiteSpace=wrap;html=1;fillColor=#f8cecc;strokeColor=#b85450;" vertex="1" parent="1">
          <mxGeometry x="710" y="820" width="120" height="60" as="geometry" />
        </mxCell>
        <mxCell id="5HV7a1OXDI3dRgfCxBMq-48" value="" style="endArrow=none;dashed=1;html=1;dashPattern=1 3;strokeWidth=2;rounded=0;" edge="1" parent="1">
          <mxGeometry width="50" height="50" relative="1" as="geometry">
            <mxPoint x="769.66" y="990" as="sourcePoint" />
            <mxPoint x="769.66" y="940" as="targetPoint" />
          </mxGeometry>
        </mxCell>
        <mxCell id="5HV7a1OXDI3dRgfCxBMq-49" value="" style="rounded=0;whiteSpace=wrap;html=1;" vertex="1" parent="1">
          <mxGeometry x="710" y="1040" width="120" height="290" as="geometry" />
        </mxCell>
        <mxCell id="5HV7a1OXDI3dRgfCxBMq-50" value="" style="rounded=0;whiteSpace=wrap;html=1;fillColor=#6d8764;fontColor=#ffffff;strokeColor=#3A5431;" vertex="1" parent="1">
          <mxGeometry x="710" y="1100" width="120" height="60" as="geometry" />
        </mxCell>
        <mxCell id="5HV7a1OXDI3dRgfCxBMq-51" value="object" style="text;html=1;strokeColor=#666666;fillColor=#f5f5f5;align=center;verticalAlign=middle;whiteSpace=wrap;rounded=0;fontColor=#333333;" vertex="1" parent="1">
          <mxGeometry x="740" y="1130" width="60" height="30" as="geometry" />
        </mxCell>
        <mxCell id="5HV7a1OXDI3dRgfCxBMq-52" value="freepointer" style="rounded=0;whiteSpace=wrap;html=1;" vertex="1" parent="1">
          <mxGeometry x="720" y="1110" width="100" height="20" as="geometry" />
        </mxCell>
        <mxCell id="5HV7a1OXDI3dRgfCxBMq-53" value="object" style="text;html=1;strokeColor=#666666;fillColor=#f5f5f5;align=center;verticalAlign=middle;whiteSpace=wrap;rounded=0;fontColor=#333333;" vertex="1" parent="1">
          <mxGeometry x="720" y="1130" width="100" height="30" as="geometry" />
        </mxCell>
        <mxCell id="5HV7a1OXDI3dRgfCxBMq-54" value="" style="rounded=0;whiteSpace=wrap;html=1;fillColor=#6d8764;fontColor=#ffffff;strokeColor=#3A5431;" vertex="1" parent="1">
          <mxGeometry x="710" y="1220" width="120" height="60" as="geometry" />
        </mxCell>
        <mxCell id="5HV7a1OXDI3dRgfCxBMq-55" value="object" style="text;html=1;strokeColor=#666666;fillColor=#f5f5f5;align=center;verticalAlign=middle;whiteSpace=wrap;rounded=0;fontColor=#333333;" vertex="1" parent="1">
          <mxGeometry x="740" y="1250" width="60" height="30" as="geometry" />
        </mxCell>
        <mxCell id="5HV7a1OXDI3dRgfCxBMq-56" value="freepointer" style="rounded=0;whiteSpace=wrap;html=1;" vertex="1" parent="1">
          <mxGeometry x="720" y="1230" width="100" height="20" as="geometry" />
        </mxCell>
        <mxCell id="5HV7a1OXDI3dRgfCxBMq-57" value="object" style="text;html=1;strokeColor=#666666;fillColor=#f5f5f5;align=center;verticalAlign=middle;whiteSpace=wrap;rounded=0;fontColor=#333333;" vertex="1" parent="1">
          <mxGeometry x="720" y="1250" width="100" height="30" as="geometry" />
        </mxCell>
        <mxCell id="5HV7a1OXDI3dRgfCxBMq-58" value="" style="rounded=0;whiteSpace=wrap;html=1;fillColor=#f8cecc;strokeColor=#b85450;" vertex="1" parent="1">
          <mxGeometry x="710" y="1040" width="120" height="60" as="geometry" />
        </mxCell>
        <mxCell id="5HV7a1OXDI3dRgfCxBMq-59" value="object" style="text;html=1;strokeColor=#666666;fillColor=#f5f5f5;align=center;verticalAlign=middle;whiteSpace=wrap;rounded=0;fontColor=#333333;" vertex="1" parent="1">
          <mxGeometry x="720" y="1070" width="100" height="30" as="geometry" />
        </mxCell>
        <mxCell id="5HV7a1OXDI3dRgfCxBMq-60" value="freepointer" style="rounded=0;whiteSpace=wrap;html=1;" vertex="1" parent="1">
          <mxGeometry x="720" y="1055" width="100" height="20" as="geometry" />
        </mxCell>
        <mxCell id="5HV7a1OXDI3dRgfCxBMq-61" value="" style="rounded=0;whiteSpace=wrap;html=1;fillColor=#f8cecc;strokeColor=#b85450;" vertex="1" parent="1">
          <mxGeometry x="710" y="1160" width="120" height="60" as="geometry" />
        </mxCell>
        <mxCell id="5HV7a1OXDI3dRgfCxBMq-62" value="object" style="text;html=1;strokeColor=#666666;fillColor=#f5f5f5;align=center;verticalAlign=middle;whiteSpace=wrap;rounded=0;fontColor=#333333;" vertex="1" parent="1">
          <mxGeometry x="720" y="1190" width="100" height="30" as="geometry" />
        </mxCell>
        <mxCell id="5HV7a1OXDI3dRgfCxBMq-63" value="freepointer" style="rounded=0;whiteSpace=wrap;html=1;" vertex="1" parent="1">
          <mxGeometry x="720" y="1175" width="100" height="20" as="geometry" />
        </mxCell>
        <mxCell id="5HV7a1OXDI3dRgfCxBMq-64" value="" style="endArrow=none;dashed=1;html=1;dashPattern=1 3;strokeWidth=2;rounded=0;" edge="1" parent="1">
          <mxGeometry width="50" height="50" relative="1" as="geometry">
            <mxPoint x="769.66" y="1330" as="sourcePoint" />
            <mxPoint x="769.66" y="1280" as="targetPoint" />
          </mxGeometry>
        </mxCell>
        <mxCell id="5HV7a1OXDI3dRgfCxBMq-66" value="Object" style="text;html=1;strokeColor=none;fillColor=none;align=center;verticalAlign=middle;whiteSpace=wrap;rounded=0;" vertex="1" parent="1">
          <mxGeometry x="980" y="450" width="60" height="30" as="geometry" />
        </mxCell>
        <mxCell id="5HV7a1OXDI3dRgfCxBMq-68" value="Object" style="text;html=1;strokeColor=none;fillColor=none;align=center;verticalAlign=middle;whiteSpace=wrap;rounded=0;" vertex="1" parent="1">
          <mxGeometry x="980" y="500" width="60" height="30" as="geometry" />
        </mxCell>
        <mxCell id="5HV7a1OXDI3dRgfCxBMq-70" value="Object" style="text;html=1;strokeColor=none;fillColor=none;align=center;verticalAlign=middle;whiteSpace=wrap;rounded=0;" vertex="1" parent="1">
          <mxGeometry x="980" y="565" width="60" height="30" as="geometry" />
        </mxCell>
        <mxCell id="5HV7a1OXDI3dRgfCxBMq-72" value="Object" style="text;html=1;strokeColor=none;fillColor=none;align=center;verticalAlign=middle;whiteSpace=wrap;rounded=0;" vertex="1" parent="1">
          <mxGeometry x="980" y="620" width="60" height="30" as="geometry" />
        </mxCell>
        <mxCell id="5HV7a1OXDI3dRgfCxBMq-73" value="Object" style="text;html=1;strokeColor=none;fillColor=none;align=center;verticalAlign=middle;whiteSpace=wrap;rounded=0;" vertex="1" parent="1">
          <mxGeometry x="740" y="700" width="60" height="30" as="geometry" />
        </mxCell>
        <mxCell id="5HV7a1OXDI3dRgfCxBMq-74" value="Object" style="text;html=1;strokeColor=none;fillColor=none;align=center;verticalAlign=middle;whiteSpace=wrap;rounded=0;" vertex="1" parent="1">
          <mxGeometry x="740" y="750" width="60" height="30" as="geometry" />
        </mxCell>
        <mxCell id="5HV7a1OXDI3dRgfCxBMq-76" style="edgeStyle=orthogonalEdgeStyle;rounded=0;orthogonalLoop=1;jettySize=auto;html=1;entryX=0;entryY=1;entryDx=0;entryDy=0;" edge="1" parent="1" source="5HV7a1OXDI3dRgfCxBMq-75" target="5HV7a1OXDI3dRgfCxBMq-44">
          <mxGeometry relative="1" as="geometry">
            <Array as="points">
              <mxPoint x="690" y="790" />
              <mxPoint x="690" y="880" />
            </Array>
          </mxGeometry>
        </mxCell>
        <mxCell id="5HV7a1OXDI3dRgfCxBMq-75" value="freepointer" style="rounded=0;whiteSpace=wrap;html=1;" vertex="1" parent="1">
          <mxGeometry x="720" y="780" width="100" height="20" as="geometry" />
        </mxCell>
        <mxCell id="5HV7a1OXDI3dRgfCxBMq-77" value="Object" style="text;html=1;strokeColor=none;fillColor=none;align=center;verticalAlign=middle;whiteSpace=wrap;rounded=0;" vertex="1" parent="1">
          <mxGeometry x="740" y="830" width="60" height="30" as="geometry" />
        </mxCell>
        <mxCell id="5HV7a1OXDI3dRgfCxBMq-78" value="" style="rounded=0;whiteSpace=wrap;html=1;fillColor=#6d8764;fontColor=#ffffff;strokeColor=#3A5431;" vertex="1" parent="1">
          <mxGeometry x="710" y="880" width="120" height="60" as="geometry" />
        </mxCell>
        <mxCell id="5HV7a1OXDI3dRgfCxBMq-79" value="freepointer" style="rounded=0;whiteSpace=wrap;html=1;" vertex="1" parent="1">
          <mxGeometry x="720" y="900" width="100" height="20" as="geometry" />
        </mxCell>
        <mxCell id="5HV7a1OXDI3dRgfCxBMq-80" value="Object" style="text;html=1;strokeColor=none;fillColor=none;align=center;verticalAlign=middle;whiteSpace=wrap;rounded=0;" vertex="1" parent="1">
          <mxGeometry x="740" y="880" width="60" height="30" as="geometry" />
        </mxCell>
        <mxCell id="5HV7a1OXDI3dRgfCxBMq-81" value="kmem_cache" style="text;html=1;strokeColor=none;fillColor=none;align=center;verticalAlign=middle;whiteSpace=wrap;rounded=0;" vertex="1" parent="1">
          <mxGeometry x="570" y="280" width="100" height="30" as="geometry" />
        </mxCell>
        <mxCell id="5HV7a1OXDI3dRgfCxBMq-83" value="kmem_cache_cpu" style="text;html=1;strokeColor=none;fillColor=none;align=center;verticalAlign=middle;whiteSpace=wrap;rounded=0;" vertex="1" parent="1">
          <mxGeometry x="580" y="450" width="120" height="30" as="geometry" />
        </mxCell>
        <mxCell id="5HV7a1OXDI3dRgfCxBMq-87" style="edgeStyle=orthogonalEdgeStyle;rounded=0;orthogonalLoop=1;jettySize=auto;html=1;entryX=1;entryY=0.5;entryDx=0;entryDy=0;" edge="1" parent="1" source="5HV7a1OXDI3dRgfCxBMq-85" target="5HV7a1OXDI3dRgfCxBMq-86">
          <mxGeometry relative="1" as="geometry" />
        </mxCell>
        <mxCell id="5HV7a1OXDI3dRgfCxBMq-85" value="kmem_cache_node" style="rounded=0;whiteSpace=wrap;html=1;" vertex="1" parent="1">
          <mxGeometry x="580" y="340" width="120" height="60" as="geometry" />
        </mxCell>
        <mxCell id="5HV7a1OXDI3dRgfCxBMq-122" style="edgeStyle=orthogonalEdgeStyle;rounded=0;orthogonalLoop=1;jettySize=auto;html=1;entryX=0.5;entryY=0;entryDx=0;entryDy=0;" edge="1" parent="1" source="5HV7a1OXDI3dRgfCxBMq-86" target="5HV7a1OXDI3dRgfCxBMq-114">
          <mxGeometry relative="1" as="geometry" />
        </mxCell>
        <mxCell id="5HV7a1OXDI3dRgfCxBMq-86" value="partial" style="rounded=0;whiteSpace=wrap;html=1;" vertex="1" parent="1">
          <mxGeometry x="380" y="340" width="120" height="60" as="geometry" />
        </mxCell>
        <mxCell id="5HV7a1OXDI3dRgfCxBMq-88" style="edgeStyle=orthogonalEdgeStyle;rounded=0;orthogonalLoop=1;jettySize=auto;html=1;" edge="1" parent="1" source="5HV7a1OXDI3dRgfCxBMq-89" target="5HV7a1OXDI3dRgfCxBMq-107">
          <mxGeometry relative="1" as="geometry" />
        </mxCell>
        <mxCell id="5HV7a1OXDI3dRgfCxBMq-89" value="" style="rounded=0;whiteSpace=wrap;html=1;" vertex="1" parent="1">
          <mxGeometry x="250" y="440" width="120" height="290" as="geometry" />
        </mxCell>
        <mxCell id="5HV7a1OXDI3dRgfCxBMq-90" value="" style="rounded=0;whiteSpace=wrap;html=1;fillColor=#6d8764;fontColor=#ffffff;strokeColor=#3A5431;" vertex="1" parent="1">
          <mxGeometry x="250" y="500" width="120" height="60" as="geometry" />
        </mxCell>
        <mxCell id="5HV7a1OXDI3dRgfCxBMq-91" value="" style="rounded=0;whiteSpace=wrap;html=1;fillColor=#6d8764;fontColor=#ffffff;strokeColor=#3A5431;" vertex="1" parent="1">
          <mxGeometry x="250" y="620" width="120" height="60" as="geometry" />
        </mxCell>
        <mxCell id="5HV7a1OXDI3dRgfCxBMq-92" value="object" style="text;html=1;strokeColor=#666666;fillColor=#f5f5f5;align=center;verticalAlign=middle;whiteSpace=wrap;rounded=0;fontColor=#333333;" vertex="1" parent="1">
          <mxGeometry x="280" y="650" width="60" height="30" as="geometry" />
        </mxCell>
        <mxCell id="5HV7a1OXDI3dRgfCxBMq-93" value="freepointer" style="rounded=0;whiteSpace=wrap;html=1;" vertex="1" parent="1">
          <mxGeometry x="260" y="630" width="100" height="20" as="geometry" />
        </mxCell>
        <mxCell id="5HV7a1OXDI3dRgfCxBMq-94" value="object" style="text;html=1;strokeColor=#666666;fillColor=#f5f5f5;align=center;verticalAlign=middle;whiteSpace=wrap;rounded=0;fontColor=#333333;" vertex="1" parent="1">
          <mxGeometry x="260" y="650" width="100" height="30" as="geometry" />
        </mxCell>
        <mxCell id="5HV7a1OXDI3dRgfCxBMq-95" value="" style="rounded=0;whiteSpace=wrap;html=1;fillColor=#f8cecc;strokeColor=#b85450;" vertex="1" parent="1">
          <mxGeometry x="250" y="440" width="120" height="60" as="geometry" />
        </mxCell>
        <mxCell id="5HV7a1OXDI3dRgfCxBMq-96" value="" style="rounded=0;whiteSpace=wrap;html=1;fillColor=#f8cecc;strokeColor=#b85450;" vertex="1" parent="1">
          <mxGeometry x="250" y="560" width="120" height="60" as="geometry" />
        </mxCell>
        <mxCell id="5HV7a1OXDI3dRgfCxBMq-97" value="" style="endArrow=none;dashed=1;html=1;dashPattern=1 3;strokeWidth=2;rounded=0;" edge="1" parent="1">
          <mxGeometry width="50" height="50" relative="1" as="geometry">
            <mxPoint x="309.65999999999997" y="730" as="sourcePoint" />
            <mxPoint x="309.65999999999997" y="680" as="targetPoint" />
          </mxGeometry>
        </mxCell>
        <mxCell id="5HV7a1OXDI3dRgfCxBMq-98" value="" style="rounded=0;whiteSpace=wrap;html=1;" vertex="1" parent="1">
          <mxGeometry x="250" y="780" width="120" height="290" as="geometry" />
        </mxCell>
        <mxCell id="5HV7a1OXDI3dRgfCxBMq-99" value="" style="rounded=0;whiteSpace=wrap;html=1;fillColor=#6d8764;fontColor=#ffffff;strokeColor=#3A5431;" vertex="1" parent="1">
          <mxGeometry x="250" y="840" width="120" height="60" as="geometry" />
        </mxCell>
        <mxCell id="5HV7a1OXDI3dRgfCxBMq-100" value="object" style="text;html=1;strokeColor=#666666;fillColor=#f5f5f5;align=center;verticalAlign=middle;whiteSpace=wrap;rounded=0;fontColor=#333333;" vertex="1" parent="1">
          <mxGeometry x="280" y="870" width="60" height="30" as="geometry" />
        </mxCell>
        <mxCell id="5HV7a1OXDI3dRgfCxBMq-101" value="freepointer" style="rounded=0;whiteSpace=wrap;html=1;" vertex="1" parent="1">
          <mxGeometry x="260" y="850" width="100" height="20" as="geometry" />
        </mxCell>
        <mxCell id="5HV7a1OXDI3dRgfCxBMq-102" value="object" style="text;html=1;strokeColor=#666666;fillColor=#f5f5f5;align=center;verticalAlign=middle;whiteSpace=wrap;rounded=0;fontColor=#333333;" vertex="1" parent="1">
          <mxGeometry x="260" y="870" width="100" height="30" as="geometry" />
        </mxCell>
        <mxCell id="5HV7a1OXDI3dRgfCxBMq-103" value="" style="rounded=0;whiteSpace=wrap;html=1;fillColor=#6d8764;fontColor=#ffffff;strokeColor=#3A5431;" vertex="1" parent="1">
          <mxGeometry x="250" y="960" width="120" height="60" as="geometry" />
        </mxCell>
        <mxCell id="5HV7a1OXDI3dRgfCxBMq-104" value="object" style="text;html=1;strokeColor=#666666;fillColor=#f5f5f5;align=center;verticalAlign=middle;whiteSpace=wrap;rounded=0;fontColor=#333333;" vertex="1" parent="1">
          <mxGeometry x="280" y="990" width="60" height="30" as="geometry" />
        </mxCell>
        <mxCell id="5HV7a1OXDI3dRgfCxBMq-105" value="freepointer" style="rounded=0;whiteSpace=wrap;html=1;" vertex="1" parent="1">
          <mxGeometry x="260" y="970" width="100" height="20" as="geometry" />
        </mxCell>
        <mxCell id="5HV7a1OXDI3dRgfCxBMq-106" value="object" style="text;html=1;strokeColor=#666666;fillColor=#f5f5f5;align=center;verticalAlign=middle;whiteSpace=wrap;rounded=0;fontColor=#333333;" vertex="1" parent="1">
          <mxGeometry x="260" y="990" width="100" height="30" as="geometry" />
        </mxCell>
        <mxCell id="5HV7a1OXDI3dRgfCxBMq-107" value="" style="rounded=0;whiteSpace=wrap;html=1;fillColor=#f8cecc;strokeColor=#b85450;" vertex="1" parent="1">
          <mxGeometry x="250" y="780" width="120" height="60" as="geometry" />
        </mxCell>
        <mxCell id="5HV7a1OXDI3dRgfCxBMq-108" value="object" style="text;html=1;strokeColor=#666666;fillColor=#f5f5f5;align=center;verticalAlign=middle;whiteSpace=wrap;rounded=0;fontColor=#333333;" vertex="1" parent="1">
          <mxGeometry x="260" y="810" width="100" height="30" as="geometry" />
        </mxCell>
        <mxCell id="5HV7a1OXDI3dRgfCxBMq-109" value="freepointer" style="rounded=0;whiteSpace=wrap;html=1;" vertex="1" parent="1">
          <mxGeometry x="260" y="795" width="100" height="20" as="geometry" />
        </mxCell>
        <mxCell id="5HV7a1OXDI3dRgfCxBMq-110" value="" style="rounded=0;whiteSpace=wrap;html=1;fillColor=#f8cecc;strokeColor=#b85450;" vertex="1" parent="1">
          <mxGeometry x="250" y="900" width="120" height="60" as="geometry" />
        </mxCell>
        <mxCell id="5HV7a1OXDI3dRgfCxBMq-111" value="object" style="text;html=1;strokeColor=#666666;fillColor=#f5f5f5;align=center;verticalAlign=middle;whiteSpace=wrap;rounded=0;fontColor=#333333;" vertex="1" parent="1">
          <mxGeometry x="260" y="930" width="100" height="30" as="geometry" />
        </mxCell>
        <mxCell id="5HV7a1OXDI3dRgfCxBMq-112" value="freepointer" style="rounded=0;whiteSpace=wrap;html=1;" vertex="1" parent="1">
          <mxGeometry x="260" y="915" width="100" height="20" as="geometry" />
        </mxCell>
        <mxCell id="5HV7a1OXDI3dRgfCxBMq-113" value="" style="endArrow=none;dashed=1;html=1;dashPattern=1 3;strokeWidth=2;rounded=0;" edge="1" parent="1">
          <mxGeometry width="50" height="50" relative="1" as="geometry">
            <mxPoint x="309.65999999999997" y="1070" as="sourcePoint" />
            <mxPoint x="309.65999999999997" y="1020" as="targetPoint" />
          </mxGeometry>
        </mxCell>
        <mxCell id="5HV7a1OXDI3dRgfCxBMq-114" value="Object" style="text;html=1;strokeColor=none;fillColor=none;align=center;verticalAlign=middle;whiteSpace=wrap;rounded=0;" vertex="1" parent="1">
          <mxGeometry x="280" y="440" width="60" height="30" as="geometry" />
        </mxCell>
        <mxCell id="5HV7a1OXDI3dRgfCxBMq-115" value="Object" style="text;html=1;strokeColor=none;fillColor=none;align=center;verticalAlign=middle;whiteSpace=wrap;rounded=0;" vertex="1" parent="1">
          <mxGeometry x="280" y="490" width="60" height="30" as="geometry" />
        </mxCell>
        <mxCell id="5HV7a1OXDI3dRgfCxBMq-116" style="edgeStyle=orthogonalEdgeStyle;rounded=0;orthogonalLoop=1;jettySize=auto;html=1;entryX=0;entryY=1;entryDx=0;entryDy=0;" edge="1" parent="1" source="5HV7a1OXDI3dRgfCxBMq-117" target="5HV7a1OXDI3dRgfCxBMq-96">
          <mxGeometry relative="1" as="geometry">
            <Array as="points">
              <mxPoint x="230" y="530" />
              <mxPoint x="230" y="620" />
            </Array>
          </mxGeometry>
        </mxCell>
        <mxCell id="5HV7a1OXDI3dRgfCxBMq-117" value="freepointer" style="rounded=0;whiteSpace=wrap;html=1;" vertex="1" parent="1">
          <mxGeometry x="260" y="520" width="100" height="20" as="geometry" />
        </mxCell>
        <mxCell id="5HV7a1OXDI3dRgfCxBMq-118" value="Object" style="text;html=1;strokeColor=none;fillColor=none;align=center;verticalAlign=middle;whiteSpace=wrap;rounded=0;" vertex="1" parent="1">
          <mxGeometry x="280" y="570" width="60" height="30" as="geometry" />
        </mxCell>
        <mxCell id="5HV7a1OXDI3dRgfCxBMq-119" value="" style="rounded=0;whiteSpace=wrap;html=1;fillColor=#6d8764;fontColor=#ffffff;strokeColor=#3A5431;" vertex="1" parent="1">
          <mxGeometry x="250" y="620" width="120" height="60" as="geometry" />
        </mxCell>
        <mxCell id="5HV7a1OXDI3dRgfCxBMq-120" value="freepointer" style="rounded=0;whiteSpace=wrap;html=1;" vertex="1" parent="1">
          <mxGeometry x="260" y="640" width="100" height="20" as="geometry" />
        </mxCell>
        <mxCell id="5HV7a1OXDI3dRgfCxBMq-121" value="Object" style="text;html=1;strokeColor=none;fillColor=none;align=center;verticalAlign=middle;whiteSpace=wrap;rounded=0;" vertex="1" parent="1">
          <mxGeometry x="280" y="620" width="60" height="30" as="geometry" />
        </mxCell>
        <mxCell id="5HV7a1OXDI3dRgfCxBMq-125" style="edgeStyle=orthogonalEdgeStyle;rounded=0;orthogonalLoop=1;jettySize=auto;html=1;entryX=0;entryY=0.5;entryDx=0;entryDy=0;" edge="1" parent="1" source="5HV7a1OXDI3dRgfCxBMq-123" target="5HV7a1OXDI3dRgfCxBMq-124">
          <mxGeometry relative="1" as="geometry" />
        </mxCell>
        <mxCell id="5HV7a1OXDI3dRgfCxBMq-127" style="edgeStyle=orthogonalEdgeStyle;rounded=0;orthogonalLoop=1;jettySize=auto;html=1;entryX=0;entryY=0.5;entryDx=0;entryDy=0;" edge="1" parent="1" source="5HV7a1OXDI3dRgfCxBMq-123" target="5HV7a1OXDI3dRgfCxBMq-126">
          <mxGeometry relative="1" as="geometry" />
        </mxCell>
        <mxCell id="5HV7a1OXDI3dRgfCxBMq-123" value="__kmalloc&lt;br&gt;申请指定大小的内存" style="rounded=0;whiteSpace=wrap;html=1;" vertex="1" parent="1">
          <mxGeometry x="1470" y="540" width="120" height="60" as="geometry" />
        </mxCell>
        <mxCell id="5HV7a1OXDI3dRgfCxBMq-124" value="kmalloc_slab&lt;br&gt;根据size确定从哪个slab申请内存" style="rounded=0;whiteSpace=wrap;html=1;" vertex="1" parent="1">
          <mxGeometry x="1710" y="470" width="120" height="60" as="geometry" />
        </mxCell>
        <mxCell id="5HV7a1OXDI3dRgfCxBMq-129" style="edgeStyle=orthogonalEdgeStyle;rounded=0;orthogonalLoop=1;jettySize=auto;html=1;entryX=0;entryY=0.5;entryDx=0;entryDy=0;" edge="1" parent="1" source="5HV7a1OXDI3dRgfCxBMq-126" target="5HV7a1OXDI3dRgfCxBMq-128">
          <mxGeometry relative="1" as="geometry" />
        </mxCell>
        <mxCell id="5HV7a1OXDI3dRgfCxBMq-131" style="edgeStyle=orthogonalEdgeStyle;rounded=0;orthogonalLoop=1;jettySize=auto;html=1;entryX=0;entryY=0.5;entryDx=0;entryDy=0;" edge="1" parent="1" source="5HV7a1OXDI3dRgfCxBMq-126" target="5HV7a1OXDI3dRgfCxBMq-130">
          <mxGeometry relative="1" as="geometry" />
        </mxCell>
        <mxCell id="5HV7a1OXDI3dRgfCxBMq-126" value="slab_alloc&lt;br&gt;从指定slab申请对象" style="rounded=0;whiteSpace=wrap;html=1;" vertex="1" parent="1">
          <mxGeometry x="1710" y="580" width="120" height="60" as="geometry" />
        </mxCell>
        <mxCell id="5HV7a1OXDI3dRgfCxBMq-128" value="从kmem_cache_cpu-&amp;gt;freelist中申请object" style="rounded=0;whiteSpace=wrap;html=1;" vertex="1" parent="1">
          <mxGeometry x="1920" y="580" width="120" height="60" as="geometry" />
        </mxCell>
        <mxCell id="5HV7a1OXDI3dRgfCxBMq-130" value="__slab_alloc&lt;br&gt;若失败，则通过slow path申请object，关闭本地中断" style="rounded=0;whiteSpace=wrap;html=1;" vertex="1" parent="1">
          <mxGeometry x="1920" y="685" width="120" height="60" as="geometry" />
        </mxCell>
      </root>
    </mxGraphModel>
  </diagram>
</mxfile>
